name ./resultDataOpenSim/trcMotMarkerGrf/sub09/grf-02-07.mot
datacolumns 19
datarows 20
range 0.96800000 1.04400000
endheader

                time	     ground_force_vx	     ground_force_vy	     ground_force_vz	     ground_force_px	     ground_force_py	     ground_force_pz	   l_ground_force_vx	   l_ground_force_vy	   l_ground_force_vz	   l_ground_force_px	   l_ground_force_py	   l_ground_force_pz	     ground_torque_x	     ground_torque_y	     ground_torque_z	   l_ground_torque_x	   l_ground_torque_y	   l_ground_torque_z	
          0.96800000	          0.00000000	          0.00000000	          0.00000000	          0.00000000	          0.00000000	          0.00000000	         -3.85173577	        440.95350192	          5.48892394	          0.16932821	         -0.02500000	          0.00168181	          0.00000000	          0.00000000	          0.00000000	          0.00000000	         -2.84766659	          0.00000000	
          0.97200000	          0.00000000	          0.00000000	          0.00000000	          0.00000000	          0.00000000	          0.00000000	         -0.72362312	        446.57246946	          5.02199744	          0.16962674	         -0.02500000	          0.00152367	          0.00000000	          0.00000000	          0.00000000	          0.00000000	         -3.10004726	          0.00000000	
          0.97600000	          0.00000000	          0.00000000	          0.00000000	          0.00000000	          0.00000000	          0.00000000	          2.79314326	        452.76217223	          4.65527292	          0.16984412	         -0.02500000	          0.00137297	          0.00000000	          0.00000000	          0.00000000	          0.00000000	         -3.34366224	          0.00000000	
          0.98000000	          0.00000000	          0.00000000	          0.00000000	          0.00000000	          0.00000000	          0.00000000	          6.72906119	        459.53861191	          4.42892952	          0.16993791	         -0.02500000	          0.00124588	          0.00000000	          0.00000000	          0.00000000	          0.00000000	         -3.57919645	          0.00000000	
          0.98400000	          0.00000000	          0.00000000	          0.00000000	          0.00000000	          0.00000000	          0.00000000	         11.08508985	        466.88311615	          4.38132137	          0.16994219	         -0.02500000	          0.00117839	          0.00000000	          0.00000000	          0.00000000	          0.00000000	         -3.80804923	          0.00000000	
          0.98800000	          0.00000000	          0.00000000	          0.00000000	          0.00000000	          0.00000000	          0.00000000	         15.82419305	        474.78176617	          4.52659753	          0.16995195	         -0.02500000	          0.00120537	          0.00000000	          0.00000000	          0.00000000	          0.00000000	         -4.03125664	          0.00000000	
          0.99200000	          0.00000000	          0.00000000	          0.00000000	          0.00000000	          0.00000000	          0.00000000	         20.87544059	        483.26096275	          4.84121519	          0.17003481	         -0.02500000	          0.00132368	          0.00000000	          0.00000000	          0.00000000	          0.00000000	         -4.24852536	          0.00000000	
          0.99600000	          0.00000000	          0.00000000	          0.00000000	          0.00000000	          0.00000000	          0.00000000	         26.14294726	        492.39186185	          5.28297301	          0.17017906	         -0.02500000	          0.00150025	          0.00000000	          0.00000000	          0.00000000	          0.00000000	         -4.45774269	          0.00000000	
          1.00000000	          0.00000000	          0.00000000	          0.00000000	          0.00000000	          0.00000000	          0.00000000	         31.50914034	        502.25786160	          5.82330776	          0.17032863	         -0.02500000	          0.00170019	          0.00000000	          0.00000000	          0.00000000	          0.00000000	         -4.65529296	          0.00000000	
          1.00400000	          0.00000000	          0.00000000	          0.00000000	          0.00000000	          0.00000000	          0.00000000	         36.83604249	        512.90265820	          6.44790174	          0.17041833	         -0.02500000	          0.00188453	          0.00000000	          0.00000000	          0.00000000	          0.00000000	         -4.83714459	          0.00000000	
          1.00800000	          0.00000000	          0.00000000	          0.00000000	          0.00000000	          0.00000000	          0.00000000	         41.97437348	        524.29809716	          7.13138281	          0.17040915	         -0.02500000	          0.00202947	          0.00000000	          0.00000000	          0.00000000	          0.00000000	         -5.00014521	          0.00000000	
          1.01200000	          0.00000000	          0.00000000	          0.00000000	          0.00000000	          0.00000000	          0.00000000	         46.78315995	        536.33167857	          7.82857259	          0.17031115	         -0.02500000	          0.00213142	          0.00000000	          0.00000000	          0.00000000	          0.00000000	         -5.14281036	          0.00000000	
          1.01600000	          0.00000000	          0.00000000	          0.00000000	          0.00000000	          0.00000000	          0.00000000	         51.16634231	        548.83502244	          8.49417381	          0.17019135	         -0.02500000	          0.00220995	          0.00000000	          0.00000000	          0.00000000	          0.00000000	         -5.26529372	          0.00000000	
          1.02000000	          0.00000000	          0.00000000	          0.00000000	          0.00000000	          0.00000000	          0.00000000	         55.10948579	        561.65766846	          9.10966499	          0.17013922	         -0.02500000	          0.00230675	          0.00000000	          0.00000000	          0.00000000	          0.00000000	         -5.36878515	          0.00000000	
          1.02400000	          0.00000000	          0.00000000	          0.00000000	          0.00000000	          0.00000000	          0.00000000	         58.67416334	        574.68540945	          9.69091000	          0.17022433	         -0.02500000	          0.00244782	          0.00000000	          0.00000000	          0.00000000	          0.00000000	         -5.45484588	          0.00000000	
          1.02800000	          0.00000000	          0.00000000	          0.00000000	          0.00000000	          0.00000000	          0.00000000	         61.95832959	        587.79868437	         10.27040469	          0.17047964	         -0.02500000	          0.00263945	          0.00000000	          0.00000000	          0.00000000	          0.00000000	         -5.52503166	          0.00000000	
          1.03200000	          0.00000000	          0.00000000	          0.00000000	          0.00000000	          0.00000000	          0.00000000	         65.06944145	        600.87836788	         10.87392819	          0.17087889	         -0.02500000	          0.00287174	          0.00000000	          0.00000000	          0.00000000	          0.00000000	         -5.58078616	          0.00000000	
          1.03600000	          0.00000000	          0.00000000	          0.00000000	          0.00000000	          0.00000000	          0.00000000	         68.11457641	        613.84381147	         11.50784638	          0.17135648	         -0.02500000	          0.00312004	          0.00000000	          0.00000000	          0.00000000	          0.00000000	         -5.62334231	          0.00000000	
          1.04000000	          0.00000000	          0.00000000	          0.00000000	          0.00000000	          0.00000000	          0.00000000	         71.18332126	        626.65708224	         12.15835331	          0.17183617	         -0.02500000	          0.00335484	          0.00000000	          0.00000000	          0.00000000	          0.00000000	         -5.65341322	          0.00000000	
          1.04400000	          0.00000000	          0.00000000	          0.00000000	          0.00000000	          0.00000000	          0.00000000	         74.32918183	        639.30892726	         12.80424971	          0.17224486	         -0.02500000	          0.00355184	          0.00000000	          0.00000000	          0.00000000	          0.00000000	         -5.67071760	          0.00000000	
